<mxfile host="app.diagrams.net" modified="2024-01-30T15:05:12.101Z" agent="Mozilla/5.0 (Windows NT 10.0; Win64; x64) AppleWebKit/537.36 (KHTML, like Gecko) Chrome/121.0.0.0 Safari/537.36" version="23.0.2" etag="jcIk9qOY4Rkv-3lDKPSa" type="github">
  <diagram name="第 1 页" id="InVpTpU3V0zNdqeEfgY0">
    <mxGraphModel>
      <root>
        <mxCell id="0" />
        <mxCell id="1" parent="0" />
      </root>
    </mxGraphModel>
  </diagram>
</mxfile>
